<mxfile host="Electron" modified="2023-10-31T21:37:30.929Z" agent="Mozilla/5.0 (Macintosh; Intel Mac OS X 10_15_7) AppleWebKit/537.36 (KHTML, like Gecko) draw.io/22.0.2 Chrome/114.0.5735.289 Electron/25.8.4 Safari/537.36" etag="mrezTfA-TaKjbP-BK3_c" version="22.0.2" type="device">
  <diagram name="useCase" id="vGHzzBGB_-ufg-b7KmKA">
    <mxGraphModel dx="1026" dy="743" grid="1" gridSize="10" guides="1" tooltips="1" connect="1" arrows="1" fold="1" page="1" pageScale="1" pageWidth="827" pageHeight="1169" math="0" shadow="0">
      <root>
        <mxCell id="0" />
        <mxCell id="1" parent="0" />
        <mxCell id="4YcJJidI34--YLi-ziaT-1" value="User" style="shape=umlActor;verticalLabelPosition=bottom;verticalAlign=top;html=1;outlineConnect=0;" parent="1" vertex="1">
          <mxGeometry x="70" y="310" width="40" height="80" as="geometry" />
        </mxCell>
        <mxCell id="4YcJJidI34--YLi-ziaT-7" value="Создать задачу" style="ellipse;whiteSpace=wrap;html=1;" parent="1" vertex="1">
          <mxGeometry x="420" y="210" width="100" height="80" as="geometry" />
        </mxCell>
        <mxCell id="4YcJJidI34--YLi-ziaT-8" value="Удалить задачу" style="ellipse;whiteSpace=wrap;html=1;" parent="1" vertex="1">
          <mxGeometry x="420" y="390" width="100" height="80" as="geometry" />
        </mxCell>
        <mxCell id="4YcJJidI34--YLi-ziaT-9" value="Просмотр задач" style="ellipse;whiteSpace=wrap;html=1;" parent="1" vertex="1">
          <mxGeometry x="420" y="300" width="100" height="80" as="geometry" />
        </mxCell>
        <mxCell id="4YcJJidI34--YLi-ziaT-10" value="Продлить подписку" style="ellipse;whiteSpace=wrap;html=1;" parent="1" vertex="1">
          <mxGeometry x="270" y="400" width="100" height="80" as="geometry" />
        </mxCell>
        <mxCell id="4YcJJidI34--YLi-ziaT-11" value="Информация об аккауте" style="ellipse;whiteSpace=wrap;html=1;" parent="1" vertex="1">
          <mxGeometry x="270" y="130" width="100" height="80" as="geometry" />
        </mxCell>
        <mxCell id="4YcJJidI34--YLi-ziaT-12" value="Поддержка" style="ellipse;whiteSpace=wrap;html=1;" parent="1" vertex="1">
          <mxGeometry x="270" y="220" width="100" height="80" as="geometry" />
        </mxCell>
        <mxCell id="4YcJJidI34--YLi-ziaT-15" value="" style="endArrow=classic;html=1;rounded=0;entryX=0;entryY=0.5;entryDx=0;entryDy=0;exitX=1;exitY=0.3333333333333333;exitDx=0;exitDy=0;exitPerimeter=0;" parent="1" source="4YcJJidI34--YLi-ziaT-1" target="4YcJJidI34--YLi-ziaT-10" edge="1">
          <mxGeometry width="50" height="50" relative="1" as="geometry">
            <mxPoint x="120" y="160" as="sourcePoint" />
            <mxPoint x="170" y="110" as="targetPoint" />
          </mxGeometry>
        </mxCell>
        <mxCell id="4YcJJidI34--YLi-ziaT-17" value="" style="endArrow=classic;html=1;rounded=0;entryX=0;entryY=0.5;entryDx=0;entryDy=0;exitX=1;exitY=0.3333333333333333;exitDx=0;exitDy=0;exitPerimeter=0;" parent="1" source="4YcJJidI34--YLi-ziaT-1" target="4YcJJidI34--YLi-ziaT-12" edge="1">
          <mxGeometry width="50" height="50" relative="1" as="geometry">
            <mxPoint x="130" y="207" as="sourcePoint" />
            <mxPoint x="280" y="220" as="targetPoint" />
          </mxGeometry>
        </mxCell>
        <mxCell id="4YcJJidI34--YLi-ziaT-19" value="" style="endArrow=classic;html=1;rounded=0;entryX=0;entryY=0.5;entryDx=0;entryDy=0;exitX=1;exitY=0.3333333333333333;exitDx=0;exitDy=0;exitPerimeter=0;" parent="1" source="4YcJJidI34--YLi-ziaT-1" target="8ArWwmYe1B0sxgKTlkxw-7" edge="1">
          <mxGeometry width="50" height="50" relative="1" as="geometry">
            <mxPoint x="480" y="410" as="sourcePoint" />
            <mxPoint x="290" y="280" as="targetPoint" />
          </mxGeometry>
        </mxCell>
        <mxCell id="4YcJJidI34--YLi-ziaT-20" value="" style="endArrow=classic;html=1;rounded=0;entryX=0;entryY=0.5;entryDx=0;entryDy=0;exitX=1;exitY=0.3333333333333333;exitDx=0;exitDy=0;exitPerimeter=0;" parent="1" source="4YcJJidI34--YLi-ziaT-1" target="4YcJJidI34--YLi-ziaT-11" edge="1">
          <mxGeometry width="50" height="50" relative="1" as="geometry">
            <mxPoint x="150" y="187" as="sourcePoint" />
            <mxPoint x="300" y="290" as="targetPoint" />
          </mxGeometry>
        </mxCell>
        <mxCell id="8ArWwmYe1B0sxgKTlkxw-7" value="Меню задачи" style="ellipse;whiteSpace=wrap;html=1;" parent="1" vertex="1">
          <mxGeometry x="270" y="310" width="100" height="80" as="geometry" />
        </mxCell>
        <mxCell id="8ArWwmYe1B0sxgKTlkxw-9" value="" style="endArrow=classic;dashed=1;html=1;rounded=0;endFill=1;exitX=1;exitY=0.5;exitDx=0;exitDy=0;entryX=0;entryY=0.5;entryDx=0;entryDy=0;" parent="1" source="8ArWwmYe1B0sxgKTlkxw-7" target="4YcJJidI34--YLi-ziaT-7" edge="1">
          <mxGeometry width="50" height="50" relative="1" as="geometry">
            <mxPoint x="360" y="380" as="sourcePoint" />
            <mxPoint x="410" y="330" as="targetPoint" />
          </mxGeometry>
        </mxCell>
        <mxCell id="8ArWwmYe1B0sxgKTlkxw-11" value="" style="endArrow=classic;dashed=1;html=1;rounded=0;endFill=1;exitX=1;exitY=0.5;exitDx=0;exitDy=0;entryX=0;entryY=0.5;entryDx=0;entryDy=0;" parent="1" source="8ArWwmYe1B0sxgKTlkxw-7" target="4YcJJidI34--YLi-ziaT-9" edge="1">
          <mxGeometry width="50" height="50" relative="1" as="geometry">
            <mxPoint x="380" y="360" as="sourcePoint" />
            <mxPoint x="430" y="260" as="targetPoint" />
          </mxGeometry>
        </mxCell>
        <mxCell id="8ArWwmYe1B0sxgKTlkxw-13" value="" style="endArrow=classic;dashed=1;html=1;rounded=0;endFill=1;exitX=1;exitY=0.5;exitDx=0;exitDy=0;entryX=0;entryY=0.5;entryDx=0;entryDy=0;" parent="1" target="4YcJJidI34--YLi-ziaT-8" edge="1">
          <mxGeometry width="50" height="50" relative="1" as="geometry">
            <mxPoint x="370" y="350" as="sourcePoint" />
            <mxPoint x="420" y="430" as="targetPoint" />
          </mxGeometry>
        </mxCell>
      </root>
    </mxGraphModel>
  </diagram>
</mxfile>
